<svg width="233" height="171" viewBox="0 0 233 171" fill="none" xmlns="http://www.w3.org/2000/svg">
<path d="M86.2148 0H7.19922C3.22266 0 0 3.22266 0 7.19922V77.9922C0 81.9648 3.22266 85.1875 7.19922 85.1875H54.4922C58.4648 85.1875 61.6875 88.4102 61.6875 92.3867V109.863C61.6875 138.484 13.2891 150.973 2.23438 153.453C0.917968 153.746 0 154.906 0 156.254V168.551C0 169.715 0.96875 170.668 2.13672 170.656C33.9805 170.332 54.75 162.715 68.2812 153.223C84.2812 142.004 93.4141 123.348 93.4141 103.809V7.19922C93.4141 3.22266 90.1914 0 86.2148 0V0Z" fill="#838383"/>
<path d="M225.453 0H146.434C142.457 0 139.238 3.22266 139.238 7.19922V77.9922C139.238 81.9648 142.457 85.1875 146.434 85.1875H193.727C197.703 85.1875 200.922 88.4102 200.922 92.3867V109.863C200.922 138.484 152.523 150.973 141.469 153.453C140.156 153.746 139.238 154.906 139.238 156.254V168.551C139.238 169.715 140.203 170.668 141.371 170.656C173.215 170.332 193.984 162.715 207.516 153.223C223.516 142.004 232.648 123.348 232.648 103.805V7.19922C232.648 3.22266 229.426 0 225.453 0V0Z" fill="#838383"/>
<g style="mix-blend-mode:luminosity">
<path d="M24.3828 167.52V155.223C24.3828 153.879 25.3008 152.715 26.6133 152.422C37.668 149.941 86.0703 137.453 86.0703 108.832V91.3555C86.0703 87.3789 82.8477 84.1562 78.8711 84.1562H31.5781C27.6055 84.1562 24.3828 80.9336 24.3828 76.9609V6.16797C24.3828 3.54688 25.7891 1.25781 27.8828 0H7.19922C3.22266 0 0 3.22266 0 7.19531V77.9883C0 81.9648 3.22266 85.1875 7.19922 85.1875H54.4922C58.4648 85.1875 61.6875 88.4102 61.6875 92.3828V109.863C61.6875 138.484 13.2891 150.973 2.23438 153.449C0.917968 153.746 0.00390625 154.906 0.00390625 156.254V168.547C0.00390625 169.715 0.96875 170.668 2.13672 170.656C10.4961 170.57 18.0859 169.977 24.9883 168.984C24.6172 168.605 24.3828 168.09 24.3828 167.52V167.52Z" fill="#6B6B6B"/>
</g>
<g style="mix-blend-mode:luminosity">
<path d="M163.617 167.52V155.223C163.617 153.879 164.535 152.715 165.848 152.422C176.906 149.941 225.305 137.453 225.305 108.832V91.3555C225.305 87.3789 222.082 84.1562 218.109 84.1562H170.812C166.84 84.1562 163.617 80.9336 163.617 76.9609V6.16797C163.617 3.54688 165.023 1.25781 167.117 0H146.434C142.457 0 139.234 3.22266 139.234 7.19531V77.9883C139.234 81.9648 142.457 85.1875 146.434 85.1875H193.727C197.699 85.1875 200.922 88.4102 200.922 92.3828V109.863C200.922 138.484 152.523 150.973 141.465 153.449C140.152 153.746 139.238 154.906 139.238 156.254V168.547C139.238 169.715 140.203 170.668 141.371 170.656C149.73 170.57 157.32 169.977 164.223 168.984C163.852 168.605 163.617 168.09 163.617 167.52Z" fill="#6B6B6B"/>
</g>
</svg>
