<svg width="153" height="153" viewBox="0 0 153 153" fill="none" xmlns="http://www.w3.org/2000/svg">
<path d="M110.925 0C97.5375 0 84.9157 6.67064 76.5 17.5101C68.0839 6.67064 55.4625 0 42.075 0C18.3593 0 0 20.0099 0 45.8582C0 77.5403 26.0093 102.973 65.406 142.158L76.5 153L87.594 142.158C126.99 102.973 153 77.5399 153 45.8582C153 20.0099 134.641 0 110.925 0ZM81.2209 131.188L79.6692 132.731L76.5 135.829L73.3311 132.732L71.7813 131.19C53.2381 112.75 37.2235 96.8235 26.6367 82.5833C16.3545 68.7524 11.7692 57.426 11.7692 45.8582C11.7692 36.7479 14.8667 28.3544 20.4913 22.2244C26.0972 16.1148 33.7622 12.75 42.075 12.75C51.6868 12.75 61.189 17.5978 67.4929 25.7171L76.5 37.3181L85.5068 25.7171C91.811 17.5978 101.313 12.75 110.925 12.75C119.238 12.75 126.903 16.1148 132.509 22.224C138.133 28.3544 141.231 36.7475 141.231 45.8582C141.231 57.426 136.646 68.752 126.364 82.5825C115.778 96.8227 99.7637 112.748 81.2209 131.188V131.188Z" fill="#A8ACBB"/>
<path d="M110.75 3C97.625 3 85.2507 9.53984 77 20.1668C68.7489 9.53984 56.375 3 43.25 3C19.9993 3 2 22.6176 2 47.959C2 79.0199 27.4993 103.954 66.1236 142.371L77 153L87.8764 142.371C126.5 103.954 152 79.0195 152 47.959C152 22.6176 134.001 3 110.75 3ZM81.6284 131.616L80.1071 133.129L77 136.165L73.8933 133.129L72.3738 131.618C54.1942 113.539 38.4936 97.925 28.1144 83.9641C18.0338 70.4043 13.5385 59.3 13.5385 47.959C13.5385 39.0273 16.5752 30.7984 22.0895 24.7887C27.5855 18.7988 35.1002 15.5 43.25 15.5C52.6733 15.5 61.9892 20.2527 68.1695 28.2129L77 39.5863L85.8302 28.2129C92.0108 20.2527 101.326 15.5 110.75 15.5C118.9 15.5 126.415 18.7988 131.911 24.7883C137.425 30.7984 140.462 39.027 140.462 47.959C140.462 59.3 135.966 70.4039 125.886 83.9633C115.507 97.9242 99.8076 113.537 81.6284 131.616V131.616Z" fill="#333333"/>
</svg>
