<svg width="150" height="150" viewBox="0 0 150 150" fill="none" xmlns="http://www.w3.org/2000/svg">
<path d="M130.734 145.312H19.2656C15.4031 145.3 11.7022 143.76 8.97099 141.029C6.23973 138.298 4.69986 134.597 4.6875 130.734V19.2656C4.69986 15.4031 6.23973 11.7022 8.97099 8.97099C11.7022 6.23973 15.4031 4.69986 19.2656 4.6875H130.734C134.597 4.69986 138.298 6.23973 141.029 8.97099C143.76 11.7022 145.3 15.4031 145.312 19.2656V130.734C145.3 134.597 143.76 138.298 141.029 141.029C138.298 143.76 134.597 145.3 130.734 145.312V145.312ZM58.1719 134.438C59.2585 134.447 60.3235 134.133 61.2315 133.536C62.1395 132.939 62.8498 132.086 63.2721 131.085C63.6944 130.083 63.8097 128.979 63.6034 127.912C63.3971 126.845 62.8785 125.864 62.1134 125.092C61.3483 124.32 60.3712 123.793 59.3061 123.578C58.2409 123.362 57.1358 123.468 56.1309 123.882C55.1261 124.296 54.2667 124.998 53.662 125.901C53.0573 126.804 52.7344 127.866 52.7344 128.953C52.7343 130.4 53.3057 131.788 54.3241 132.815C55.3425 133.842 56.7255 134.425 58.1719 134.438V134.438ZM42.1875 134.344C43.268 134.325 44.319 133.988 45.2085 133.374C46.098 132.76 46.7863 131.898 47.1871 130.894C47.5878 129.89 47.6832 128.791 47.4611 127.733C47.239 126.675 46.7094 125.707 45.9388 124.949C45.1682 124.192 44.1909 123.679 43.1297 123.475C42.0685 123.27 40.9706 123.384 39.9739 123.802C38.9772 124.22 38.1261 124.923 37.5275 125.822C36.929 126.722 36.6095 127.779 36.6094 128.859C36.6028 129.589 36.7434 130.313 37.0226 130.988C37.3018 131.662 37.7139 132.274 38.2345 132.785C38.755 133.297 39.3733 133.699 40.0525 133.967C40.7316 134.234 41.4577 134.363 42.1875 134.344ZM26.25 134.344C27.3305 134.325 28.3815 133.988 29.271 133.374C30.1605 132.76 30.8488 131.898 31.2496 130.894C31.6503 129.89 31.7457 128.791 31.5236 127.733C31.3015 126.675 30.7719 125.707 30.0013 124.949C29.2307 124.192 28.2534 123.679 27.1922 123.475C26.131 123.27 25.0331 123.384 24.0364 123.802C23.0397 124.22 22.1886 124.923 21.59 125.822C20.9915 126.722 20.672 127.779 20.6719 128.859C20.6719 130.314 21.2497 131.709 22.2782 132.737C23.3067 133.766 24.7017 134.344 26.1562 134.344H26.25ZM135.938 19.2656C135.938 17.8857 135.389 16.5622 134.414 15.5865C133.438 14.6107 132.114 14.0625 130.734 14.0625H19.2656C17.8857 14.0625 16.5622 14.6107 15.5865 15.5865C14.6107 16.5622 14.0625 17.8857 14.0625 19.2656V112.5H135.938V19.2656Z" fill="#333333"/>
<path d="M72.6363 51.8581H78.0242V68.0219H72.6363V51.8581ZM75.3303 92.2676C60.4461 92.2676 48.3906 80.2121 48.3906 65.3279C48.3906 50.4438 60.4461 38.3883 75.3303 38.3883C90.2144 38.3883 102.27 50.4438 102.27 65.3279C102.27 80.2121 90.2144 92.2676 75.3303 92.2676ZM75.3303 43.7762C63.4499 43.7762 53.7786 53.4475 53.7786 65.3279C53.7786 77.2083 63.4499 86.8796 75.3303 86.8796C87.2107 86.8796 96.882 77.2083 96.882 65.3279C96.882 53.4475 87.2107 43.7762 75.3303 43.7762ZM72.6363 73.4098H78.0242V78.7978H72.6363V73.4098Z" fill="#A8ACBB"/>
</svg>
