<svg height='100px' width='100px'  fill="#2d3618" xmlns="http://www.w3.org/2000/svg" xmlns:xlink="http://www.w3.org/1999/xlink" version="1.1" x="0px" y="0px" viewBox="0 0 100 100" enable-background="new 0 0 100 100" xml:space="preserve"><g><path d="M62.88,17.938c0,3.788,0.129,7.085,0.418,7.989l0.645,0.676c1.378,1.44,3.094,3.233,4.295,4.771   c1.605,2.057,1.789,6.718,1.811,7.631c-0.019,2.176-0.444,52.216-0.557,54.059c-0.019,0.308-0.051,0.595-0.092,0.872   c12.942-7.062,21.724-20.791,21.724-36.574C91.123,39.054,79.303,23.517,62.88,17.938z"></path><path d="M43.436,78.35c-0.977,0.758-1.88,1.635-2.026,1.984c-0.317,1.225-0.481,12.627-0.34,13.82   c0.039,0.162,0.072,0.229,0.074,0.231c0.049,0.065,0.125,0.125,0.216,0.212c0.105,0.093,0.607,0.342,1.395,0.461   c0.261,0.04,0.736,0.098,1.274,0.159c-0.223-0.636-0.349-1.336-0.398-2.154C43.591,92.44,43.517,86.291,43.436,78.35z"></path><path d="M36.192,94.596c0.089-0.085,0.164-0.145,0.219-0.22c-0.001,0,0.031-0.071,0.083-0.302   c0.127-1.114-0.038-12.516-0.381-13.812c-0.141-0.327-1.296-1.415-2.398-2.209c-0.231-0.173-5.126-3.911-5.577-10.417   c-0.424-6.123,2.754-15.72,2.889-16.126c0.205-0.612,0.777-1.024,1.423-1.024h10.723c-0.056-6.247-0.094-10.821-0.1-11.434   c0.021-0.959,0.204-5.621,1.81-7.678c1.204-1.541,2.922-3.335,4.302-4.778l0.638-0.668c0.343-1.078,0.461-5.551,0.404-10.185   c-0.248-0.004-0.493-0.019-0.742-0.019c-22.996,0-41.638,18.642-41.638,41.638c0,16.913,10.087,31.46,24.569,37.978   c0.931-0.101,1.944-0.215,2.378-0.281C35.582,94.939,36.084,94.69,36.192,94.596z"></path><path d="M67.055,32.297c-1.381-1.768-3.481-3.899-4.973-5.47c-1.051-1.105-0.608-14.754-0.608-14.754V6.105   c0,0,0.277-2.763-0.442-3.537c-0.718-0.773-8.224-0.773-8.941,0c-0.72,0.774-0.442,3.537-0.442,3.537v5.968   c0,0,0.442,13.649-0.608,14.754c-1.492,1.571-3.591,3.702-4.973,5.47c-1.381,1.769-1.492,6.742-1.492,6.742s0.041,4.759,0.1,11.446   h0.426c0.646,0,1.218,0.413,1.423,1.024c0.135,0.406,3.312,10.003,2.889,16.126c-0.326,4.7-2.966,7.946-4.488,9.45   c0.086,8.512,0.165,15.251,0.204,15.887c0.062,1.027,0.254,1.771,0.631,2.435c0.707,0.075,1.254,0.131,1.268,0.133   c0.766,0.078,1.348,0.723,1.348,1.492v0.682c1.396,0.603,3.052,0.896,3.052,0.896h10.27c0,0,3.15-0.553,4.421-1.713   s1.768-2.101,1.878-3.924c0.111-1.824,0.554-53.934,0.554-53.934S68.436,34.066,67.055,32.297z"></path><g><path d="M42.957,76.835c0,0,4.55-3.407,4.958-9.303c0.407-5.896-2.815-15.547-2.815-15.547H32.45c0,0-3.223,9.65-2.815,15.547    c0.408,5.896,4.957,9.303,4.957,9.303s2.469,1.775,2.938,2.938s0.592,13.893,0.429,14.627c-0.163,0.735-0.327,0.897-0.735,1.285    c-0.407,0.388-1.265,0.715-2.203,0.857s-4.344,0.49-4.344,0.49v0.795h16.197v-0.795c0,0-3.407-0.348-4.345-0.49    c-0.939-0.143-1.795-0.47-2.204-0.857c-0.407-0.388-0.571-0.55-0.734-1.285c-0.163-0.734-0.041-13.465,0.429-14.627    C40.488,78.61,42.957,76.835,42.957,76.835z"></path></g></g></svg>