<svg width="233" height="171" viewBox="0 0 233 171" fill="none" xmlns="http://www.w3.org/2000/svg">
<g style="mix-blend-mode:luminosity">
<path d="M146.434 170.656H225.449C229.426 170.656 232.648 167.434 232.648 163.457V92.6642C232.648 88.6915 229.426 85.4689 225.449 85.4689H178.156C174.184 85.4689 170.961 82.2462 170.961 78.2696V60.7931C170.961 32.172 219.359 19.6837 230.418 17.2032C231.73 16.9103 232.648 15.7462 232.648 14.4025V2.10558C232.648 0.941513 231.68 -0.0116121 230.516 0.000106924C198.668 0.324326 177.898 7.94151 164.367 17.4337C148.367 28.6525 139.238 47.3087 139.238 66.8478V163.457C139.234 167.434 142.457 170.656 146.434 170.656Z" fill="#838383"/>
<path d="M7.19531 170.656H86.2148C90.1914 170.656 93.4102 167.434 93.4102 163.457V92.6642C93.4102 88.6915 90.1914 85.4689 86.2148 85.4689H38.9219C34.9453 85.4689 31.7227 82.2462 31.7227 78.2696V60.7931C31.7227 32.172 80.125 19.6837 91.1797 17.2032C92.4922 16.9103 93.4102 15.7462 93.4102 14.4025V2.10558C93.4102 0.941513 92.4453 -0.0116121 91.2773 0.000106924C59.4336 0.324326 38.6602 7.94151 25.1289 17.4337C9.13281 28.6525 0 47.3087 0 66.8517V163.457C0 167.434 3.22266 170.656 7.19531 170.656Z" fill="#838383"/>
</g>
<g style="mix-blend-mode:luminosity">
<g style="mix-blend-mode:luminosity">
<path d="M169.797 163.457V66.8517C169.797 47.3087 178.93 28.6525 194.93 17.4337C203.926 11.1212 216.125 5.64464 232.648 2.58214V2.10948C232.648 0.941513 231.68 -0.0116121 230.512 0.000106923C198.668 0.324326 177.898 7.94151 164.367 17.4337C148.367 28.6525 139.234 47.3087 139.234 66.8517V163.457C139.234 167.434 142.457 170.656 146.434 170.656H176.996C173.02 170.656 169.797 167.434 169.797 163.457Z" fill="#6B6B6B"/>
</g>
<g style="mix-blend-mode:luminosity">
<path d="M30.5625 163.457V66.8517C30.5625 47.3087 39.6914 28.6525 55.6914 17.4337C64.6875 11.1212 76.8906 5.64464 93.4102 2.58214V2.10948C93.4102 0.941513 92.4453 -0.0116121 91.2773 0.000106923C59.4336 0.324326 38.6602 7.94151 25.1289 17.4337C9.13281 28.6525 0 47.3087 0 66.8517V163.457C0 167.434 3.22266 170.656 7.19531 170.656H37.7578C33.7852 170.656 30.5625 167.434 30.5625 163.457Z" fill="#6B6B6B"/>
</g>
</g>
</svg>
