<svg width="155" height="154" viewBox="0 0 155 154" fill="none" xmlns="http://www.w3.org/2000/svg">
<path d="M122.758 0.559544L18.7852 47.0685H51.6356L133.239 10.557L132.069 6.31845C131.766 5.14721 131.282 4.06576 130.646 3.13824C130.01 2.21073 129.234 1.45604 128.366 0.918944C127.498 0.381848 126.554 0.0732807 125.59 0.0115439C124.627 -0.050193 123.664 0.136158 122.758 0.559544V0.559544ZM131.475 87.5421V105.095L149.106 97.194C150.938 96.3644 152.438 94.6408 153.278 92.4003C154.119 90.1598 154.231 87.5848 153.591 85.2385L139.525 33.5235L109.286 47.0685H120.542C123.442 47.0685 126.222 48.5417 128.273 51.1639C130.323 53.7862 131.475 57.3427 131.475 61.0511V87.5421V87.5421Z" fill="#333333"/>
<path d="M134.425 14.9106L62.5469 47.0454H98.369L138.333 29.1697L134.425 14.9106Z" fill="#333333"/>
<path d="M0.0720404 144.625C0.0720404 147.111 0.844319 149.496 2.21898 151.254C3.59365 153.012 5.45809 154 7.40216 154H120.542C121.504 154 122.458 153.758 123.347 153.286C124.236 152.815 125.044 152.125 125.725 151.254C126.406 150.383 126.946 149.35 127.314 148.212C127.682 147.075 127.872 145.856 127.872 144.625V89.8458H0L0.0720404 144.625ZM75.9127 100.58H123.712V115.853H75.9127V100.58ZM75.9127 123.616H111.753V132.992H75.9127V123.616ZM26.7811 94.6372C29.8959 94.6467 32.9708 95.5355 35.7861 97.2403C38.5958 95.5148 41.6744 94.6249 44.7912 94.6372C50.3798 94.6372 55.7395 97.4768 59.6912 102.531C63.643 107.586 65.863 114.441 65.863 121.589C65.863 128.737 63.643 135.592 59.6912 140.647C55.7395 145.701 50.3798 148.541 44.7912 148.541C41.6744 148.553 38.5958 147.663 35.7861 145.938C32.971 147.643 29.896 148.532 26.7811 148.541C21.1925 148.541 15.8327 145.701 11.881 140.647C7.92927 135.592 5.70921 128.737 5.70921 121.589C5.70921 114.441 7.92927 107.586 11.881 102.531C15.8327 97.4768 21.1925 94.6372 26.7811 94.6372V94.6372ZM127.872 61.0283C127.867 58.5457 127.093 56.1669 125.719 54.4137C124.344 52.6604 122.483 51.6758 120.542 51.6758H7.40216C5.45809 51.6758 3.59365 52.6636 2.21898 54.4218C0.844319 56.18 0.0720404 58.5647 0.0720404 61.0513V65.4972H127.944L127.872 61.0283Z" fill="#333333"/>
<path d="M127.87 70.104H0.0703125V85.2384H127.87V70.104Z" fill="#333333"/>
<path d="M30.8834 126.679C30.8834 124.998 30.181 123.892 29.7308 123.892H28.5781V129.467H29.7308C30.2351 129.467 30.8834 128.361 30.8834 126.679Z" fill="#A8ACBB"/>
<path d="M26.7784 143.933C29.691 143.941 32.5587 143.015 35.1196 141.241C37.6805 139.466 39.853 136.899 41.4387 133.775C41.9735 132.725 42.4432 131.624 42.8434 130.481C44.6054 125.308 44.7672 119.474 43.2964 114.155C41.8255 108.836 38.8316 104.429 34.919 101.824C32.4183 100.124 29.6286 99.2376 26.7964 99.2442C22.1615 99.2442 17.7161 101.598 14.437 105.787C11.1579 109.977 9.31337 115.66 9.30859 121.589C9.32284 127.509 11.168 133.182 14.4411 137.369C17.7143 141.555 22.1495 143.915 26.7784 143.933V143.933ZM23.8428 123.892C21.1773 123.892 19.0881 120.644 19.0881 116.498C19.0881 112.351 21.1773 109.103 23.8428 109.103H24.9774V106.316C24.9774 105.705 25.1672 105.119 25.5049 104.687C25.8427 104.255 26.3008 104.013 26.7784 104.013C27.2561 104.013 27.7142 104.255 28.0519 104.687C28.3897 105.119 28.5794 105.705 28.5794 106.316V109.103H32.6857C33.1634 109.103 33.6215 109.346 33.9592 109.778C34.297 110.21 34.4868 110.796 34.4868 111.407C34.4868 112.018 34.297 112.604 33.9592 113.036C33.6215 113.468 33.1634 113.711 32.6857 113.711H28.5794V119.285H29.7321C32.3976 119.285 34.4868 122.533 34.4868 126.68C34.4868 130.826 32.3976 134.074 29.7321 134.074H28.5794V136.907C28.5794 137.518 28.3897 138.104 28.0519 138.536C27.7142 138.968 27.2561 139.211 26.7784 139.211C26.3008 139.211 25.8427 138.968 25.5049 138.536C25.1672 138.104 24.9774 137.518 24.9774 136.907V134.074H20.8891C20.4114 134.074 19.9534 133.831 19.6156 133.399C19.2778 132.967 19.0881 132.381 19.0881 131.77C19.0881 131.16 19.2778 130.574 19.6156 130.142C19.9534 129.71 20.4114 129.467 20.8891 129.467H24.9774V123.892H23.8428Z" fill="#A8ACBB"/>
<path d="M24.9787 113.711H23.8441C23.3758 113.711 22.6914 114.816 22.6914 116.498C22.6914 118.179 23.3758 119.285 23.8441 119.285H24.9787V113.711ZM47.8696 121.589C47.8711 125.723 47.1278 129.802 45.6973 133.51C44.2668 137.217 42.1875 140.453 39.6209 142.966C41.2664 143.612 42.9785 143.938 44.6998 143.933C49.3331 143.933 53.7766 141.579 57.0528 137.389C60.329 133.198 62.1696 127.515 62.1696 121.589C62.1696 115.663 60.329 109.979 57.0528 105.789C53.7766 101.598 49.3331 99.2442 44.6998 99.2442C42.9785 99.2391 41.2664 99.5653 39.6209 100.212C40.349 100.922 41.0408 101.692 41.6921 102.515C43.6569 105.014 45.2146 107.986 46.275 111.26C47.3354 114.534 47.8774 118.045 47.8696 121.589Z" fill="#A8ACBB"/>
</svg>
