<svg width="150" height="150" viewBox="0 0 150 150" fill="none" xmlns="http://www.w3.org/2000/svg">
<path d="M143.232 136.143H80.4785V115.078H143.203C146.924 115.078 149.941 112.061 149.941 108.34L150 6.73828C150 4.95117 149.297 3.22266 148.037 1.96289C146.777 0.703125 145.049 0 143.262 0H6.73828C3.01758 0 0 3.01758 0 6.73828V108.34C0 112.061 3.01758 115.078 6.73828 115.078H69.2578V136.143H6.76758C3.04688 136.143 0.0292969 139.16 0.0292969 142.881C0.0292969 146.602 3.04688 149.619 6.76758 149.619H143.232C146.953 149.619 149.971 146.602 149.971 142.881C149.971 139.16 146.953 136.143 143.232 136.143ZM134.385 110.596H124.805C123.691 110.596 122.813 109.6 122.813 108.34C122.813 107.08 123.721 106.084 124.805 106.084H134.385C135.498 106.084 136.377 107.08 136.377 108.34C136.377 109.6 135.469 110.596 134.385 110.596ZM13.4766 101.602V13.4766H136.523L136.494 101.602H13.4766ZM76.875 110.977C75.4102 112.295 73.1836 112.207 71.8359 110.742C70.5176 109.277 70.6055 107.051 72.0703 105.703C73.5352 104.355 75.7617 104.473 77.1094 105.938C78.4277 107.402 78.3105 109.658 76.875 110.977Z" fill="#333333"/>
<path d="M60.8765 51.6846H55.2856V46.0938C55.2856 44.5563 54.0277 43.2983 52.4902 43.2983C50.9528 43.2983 49.6948 44.5563 49.6948 46.0938V51.6846H44.104C42.5665 51.6846 41.3086 52.9425 41.3086 54.48C41.3086 56.0175 42.5665 57.2754 44.104 57.2754H49.6948V62.8662C49.6948 64.4037 50.9528 65.6616 52.4902 65.6616C54.0277 65.6616 55.2856 64.4037 55.2856 62.8662V57.2754H60.8765C62.4139 57.2754 63.6719 56.0175 63.6719 54.48C63.6719 52.9425 62.4139 51.6846 60.8765 51.6846ZM91.626 54.48C96.2664 54.48 99.9843 50.7341 99.9843 46.0938C99.9843 41.4534 96.2664 37.7075 91.626 37.7075C90.7314 37.7075 89.8649 37.8473 89.0822 38.0989C90.6755 40.3632 91.598 43.1027 91.598 46.0938C91.598 49.0848 90.6476 51.7964 89.0822 54.0886C89.8649 54.3402 90.7314 54.48 91.626 54.48ZM77.6489 54.48C82.2893 54.48 86.0072 50.7341 86.0072 46.0938C86.0072 41.4534 82.2893 37.7075 77.6489 37.7075C73.0085 37.7075 69.2627 41.4534 69.2627 46.0938C69.2627 50.7341 73.0085 54.48 77.6489 54.48ZM77.6489 60.0708C72.0581 60.0708 60.8765 62.8662 60.8765 68.457V71.2524C60.8765 72.7899 62.1344 74.0479 63.6719 74.0479H91.626C93.1635 74.0479 94.4214 72.7899 94.4214 71.2524V68.457C94.4214 62.8662 83.2397 60.0708 77.6489 60.0708ZM96.1545 60.5181C98.4747 62.5587 100.012 65.1584 100.012 68.457V72.6501C100.012 73.1254 99.9563 73.6006 99.8724 74.0479H107.001C107.783 74.0479 108.398 73.4329 108.398 72.6501V68.457C108.398 64.1521 101.773 61.4965 96.1545 60.5181Z" fill="#A8ACBB"/>
</svg>
