<svg width="151" height="145" viewBox="0 0 151 145" fill="none" xmlns="http://www.w3.org/2000/svg">
<path d="M79.9536 71.4879L84.9703 77.1317V12.8553C84.9703 5.64378 79.3265 0 72.115 0H12.5417C5.64378 0.313543 0 5.95733 0 12.8553V128.866C0 135.764 5.64378 141.722 12.8553 141.722H69.6066C73.6827 141.722 77.4452 140.154 80.2671 137.332C75.8775 132.942 71.8014 128.239 70.5473 122.596H14.423C12.5417 122.596 11.2876 121.341 11.2876 119.46V22.2616C11.2876 20.6939 12.5417 19.1262 14.423 19.1262H70.8608C72.7421 19.1262 73.9963 20.6939 73.9963 22.2616V67.4118C76.1911 68.3525 78.3859 69.6067 79.9536 71.4879ZM35.1169 128.866H50.167C52.0482 128.866 53.3024 130.121 53.3024 132.002C53.3024 133.57 52.0482 135.137 50.167 135.137H35.1169C33.2356 135.137 31.9814 133.57 31.9814 132.002C31.9814 130.121 33.2356 128.866 35.1169 128.866Z" fill="#333333"/>
<path d="M146.741 110.054C145.173 92.1821 127.615 79.9539 121.344 71.4882C116.327 66.1579 107.548 68.3527 105.667 74.9372C100.65 73.683 95.6336 77.759 94.6929 82.4622C91.244 82.1487 87.795 84.0299 85.6002 87.1654L75.2532 75.5642C71.8043 71.8017 65.8469 71.4882 62.0844 74.9372C55.5 80.5809 60.2031 86.2247 62.3979 89.0466C68.9824 96.5717 51.7375 77.4455 78.3887 106.605C76.8209 109.113 76.1939 111.935 75.8803 114.757C75.5668 119.46 77.1345 124.163 79.9564 127.612C81.5241 129.494 95.6336 147.679 112.251 141.095C116.641 145.798 124.166 146.425 129.183 142.035L146.428 127.299C151.444 122.909 152.071 115.698 147.368 110.681L146.741 110.054Z" fill="#333333"/>
<path d="M58.0051 70.2341C60.5134 68.0393 63.9624 66.7851 67.4114 66.4716C67.4114 66.158 67.4114 65.5309 67.4114 65.2174C67.0978 63.9632 66.1572 63.3361 64.903 63.0226L51.4206 61.1413L45.4633 49.2267C44.5227 47.0319 40.7602 47.0319 39.8195 49.2267L33.8622 61.1413L20.3798 63.0226C19.1257 63.3361 18.185 63.9632 17.8715 65.2174C17.5579 66.4716 17.8715 67.7257 18.8121 68.3528L28.532 77.7591L26.3372 90.9279C26.0236 92.1821 26.6507 93.4363 27.5913 94.0634C28.532 94.6905 29.7861 94.6905 30.7268 94.3769L42.6414 88.1061L54.5561 94.3769C55.4967 95.004 56.7509 94.6905 58.0051 94.0634C58.0051 94.0634 58.3186 94.0634 58.3186 93.7498C58.3186 93.7498 58.005 93.4363 57.6915 93.1228C48.2852 81.5216 53.929 73.6831 58.0051 70.2341Z" fill="#A8ACBB"/>
</svg>
