<svg width="151" height="151" viewBox="0 0 151 151" fill="none" xmlns="http://www.w3.org/2000/svg">
<path d="M75.4623 0C33.7485 0 0 33.7863 0 75.5C0 117.214 33.7485 151 75.4623 151C117.176 151 151 117.214 151 75.5C151 33.7863 117.176 0 75.4623 0ZM127.746 45.3H105.474C103.02 35.8625 99.5845 26.8025 95.0545 18.422C108.947 23.1785 120.498 32.8048 127.746 45.3V45.3ZM75.5 15.3643C81.8043 24.4243 86.7118 34.5035 89.9205 45.3H61.0795C64.2883 34.5035 69.1958 24.4243 75.5 15.3643ZM17.063 90.6C15.8173 85.768 15.1 80.7095 15.1 75.5C15.1 70.2905 15.8173 65.232 17.063 60.4H42.5443C41.9403 65.3453 41.525 70.366 41.525 75.5C41.525 80.634 41.9403 85.6548 42.582 90.6H17.063ZM23.2162 105.7H45.4887C47.9425 115.138 51.3777 124.198 55.9077 132.616C42.0157 127.859 30.4642 118.195 23.2162 105.7ZM45.4887 45.3H23.2162C30.4642 32.8048 42.0157 23.1408 55.9077 18.3843C51.3777 26.8025 47.9425 35.8625 45.4887 45.3ZM75.5 135.636C69.2335 126.576 64.326 116.497 61.0795 105.7H89.9205C86.674 116.497 81.7665 126.576 75.5 135.636ZM93.167 90.6H57.833C57.1158 85.6548 56.625 80.634 56.625 75.5C56.625 70.366 57.1158 65.3453 57.833 60.4H93.167C93.8843 65.3453 94.375 70.366 94.375 75.5C94.375 80.634 93.8843 85.6548 93.167 90.6ZM95.0923 132.578C99.6223 124.16 103.058 115.138 105.511 105.7H127.784C120.498 118.195 108.947 127.822 95.0923 132.578V132.578ZM108.418 90.6C109.022 85.6548 109.475 80.634 109.475 75.5C109.475 70.366 109.06 65.3453 108.418 60.4H133.899C135.145 65.232 135.9 70.2905 135.9 75.5C135.9 80.7095 135.183 85.768 133.899 90.6H108.418Z" fill="#A8ACBB"/>
<path d="M65.7984 69.3507L76.1022 65.9342L86.406 69.3507L85.8686 59.7413L92.7825 52.2502L82.1377 49.7262L76.1022 41.6763L70.0667 49.7262L59.4219 52.2502L66.3358 59.7413L65.7984 69.3507Z" fill="#333333"/>
<path d="M59.1406 63.3379L50.9347 66.2586L42.5016 63.4731L43.256 71.487L37.9336 77.7791L46.6045 79.8163L51.7512 86.4961L56.3502 79.7442L64.8557 77.5717L59.0269 71.3608L59.1406 63.3379Z" fill="#333333"/>
<path d="M41.4167 84.0713L36.8798 89.0653L29.5938 90.0028L33.7587 95.5647L32.8079 102.001L39.9285 100.442L46.6151 103.488L46.8528 96.962L51.9479 92.4007L44.9719 89.9397L41.4167 84.0713Z" fill="#333333"/>
<path d="M105.589 79.8163L114.27 77.7791L108.947 71.487L109.702 63.4731L101.269 66.2586L93.0731 63.3379L93.1765 71.3608L87.3477 77.5717L95.8532 79.7442L100.452 86.4961L105.589 79.8163Z" fill="#333333"/>
<path d="M110.783 84.0713L107.227 89.9397L100.262 92.4007L105.346 96.962L105.584 103.488L112.271 100.442L119.391 102.001L118.441 95.5647L122.605 90.0028L115.319 89.0653L110.783 84.0713Z" fill="#333333"/>
<path d="M76.0998 81.728C73.0982 81.7262 70.1636 82.5011 67.6671 83.9545C65.1705 85.4079 63.2244 87.4745 62.0748 89.893C60.9252 92.3114 60.6239 94.9729 61.209 97.5407C61.7941 100.109 63.2392 102.467 65.3616 104.319C67.484 106.17 70.1882 107.43 73.1322 107.941C76.0761 108.451 79.1274 108.188 81.9001 107.185C84.6727 106.183 87.042 104.485 88.7083 102.308C90.3746 100.13 91.2629 97.5703 91.2609 94.9523C91.2609 93.2156 90.8687 91.496 90.1068 89.8916C89.3449 88.2871 88.2281 86.8293 86.8203 85.6013C85.4124 84.3733 83.7411 83.3992 81.9017 82.7347C80.0622 82.0701 78.0907 81.728 76.0998 81.728V81.728ZM81.7115 101.289C81.7115 101.469 81.6299 101.641 81.4845 101.768C81.3392 101.894 81.142 101.966 80.9364 101.966C80.7309 101.966 80.5337 101.894 80.3883 101.768C80.243 101.641 80.1613 101.469 80.1613 101.289V95.6644H72.0382V101.325C72.0382 101.505 71.9565 101.677 71.8112 101.804C71.6658 101.93 71.4686 102.002 71.2631 102.002C71.0575 102.002 70.8604 101.93 70.715 101.804C70.5696 101.677 70.488 101.505 70.488 101.325V88.7052C70.488 88.5259 70.5696 88.354 70.715 88.2272C70.8604 88.1004 71.0575 88.0291 71.2631 88.0291C71.4686 88.0291 71.6658 88.1004 71.8112 88.2272C71.9565 88.354 72.0382 88.5259 72.0382 88.7052V94.3573H80.1613V88.6241C80.1613 88.4448 80.243 88.2728 80.3883 88.146C80.5337 88.0192 80.7309 87.948 80.9364 87.948C81.142 87.948 81.3392 88.0192 81.4845 88.146C81.6299 88.2728 81.7115 88.4448 81.7115 88.6241V101.289Z" fill="#333333"/>
</svg>
